<svg width="2116" height="627" viewBox="0 0 2116 627" fill="none" xmlns="http://www.w3.org/2000/svg">
<path d="M32 416.009C101.875 530.287 230.875 544 230.875 544V32.0346C230.875 32.0346 365.25 27.4634 462 123.457M69.625 182.882V265.162M263.125 219.451H370.625" stroke="url(#paint0_linear_643_5)" stroke-width="63" stroke-linecap="round"/>
<path d="M746.03 464.488C734.561 464.488 724.213 461.87 714.988 456.634C706.012 451.149 699.405 442.671 695.166 431.202L617 198.2H676.466L739.672 409.136C740.171 410.881 740.919 412.128 741.916 412.876C743.163 413.624 744.534 413.998 746.03 413.998C747.526 413.998 748.773 413.624 749.77 412.876C751.017 412.128 751.889 410.881 752.388 409.136L817.838 198.2H874.686L796.894 430.828C792.905 442.048 786.297 450.525 777.072 456.26C767.847 461.745 757.499 464.488 746.03 464.488ZM995.283 460C973.591 460 954.642 455.886 938.435 447.658C922.478 439.181 910.011 427.711 901.035 413.25C892.309 398.789 887.945 382.582 887.945 364.63C887.945 344.434 892.059 326.856 900.287 311.896C908.515 296.936 919.735 285.342 933.947 277.114C948.159 268.886 964.241 264.772 982.193 264.772C1003.64 264.772 1020.96 269.26 1034.18 278.236C1047.64 287.212 1057.49 299.305 1063.73 314.514C1069.96 329.474 1073.08 346.179 1073.08 364.63C1073.08 367.123 1072.95 370.115 1072.7 373.606C1072.45 376.847 1072.08 379.341 1071.58 381.086H942.549C944.544 388.815 947.91 395.298 952.647 400.534C957.634 405.77 963.743 409.759 970.973 412.502C978.453 414.995 986.806 416.242 996.031 416.242H1049.14V460H995.283ZM942.175 346.678H1021.84C1021.34 341.941 1020.47 337.577 1019.22 333.588C1017.97 329.349 1016.23 325.609 1013.98 322.368C1011.74 319.127 1009.12 316.384 1006.13 314.14C1003.14 311.896 999.647 310.151 995.657 308.904C991.668 307.657 987.305 307.034 982.567 307.034C976.334 307.034 970.724 308.156 965.737 310.4C961 312.644 957.011 315.636 953.769 319.376C950.528 323.116 947.91 327.355 945.915 332.092C944.17 336.829 942.923 341.691 942.175 346.678ZM1107.31 460V323.49C1107.31 306.535 1112.04 293.321 1121.52 283.846C1131.24 274.122 1144.58 269.26 1161.54 269.26H1214.27V313.018H1170.51C1167.27 313.018 1164.4 314.14 1161.91 316.384C1159.67 318.628 1158.54 321.495 1158.54 324.986V460H1107.31ZM1242.49 460V269.26H1294.1V460H1242.49ZM1268.29 246.446C1259.57 246.446 1251.96 243.329 1245.48 237.096C1239.24 230.613 1236.13 223.009 1236.13 214.282C1236.13 205.555 1239.24 198.075 1245.48 191.842C1251.96 185.359 1259.57 182.118 1268.29 182.118C1277.02 182.118 1284.5 185.359 1290.73 191.842C1297.21 198.075 1300.46 205.555 1300.46 214.282C1300.46 223.009 1297.21 230.613 1290.73 237.096C1284.5 243.329 1277.02 246.446 1268.29 246.446ZM1339.58 460V274.496C1339.58 260.284 1342.94 247.443 1349.67 235.974C1356.66 224.505 1365.88 215.404 1377.35 208.672C1389.07 201.691 1401.91 198.2 1415.87 198.2H1510.49V245.324H1421.86C1413.88 245.324 1407.02 248.191 1401.29 253.926C1395.8 259.661 1393.06 266.517 1393.06 274.496V316.758H1497.78V363.882H1393.06V460H1339.58ZM1615.69 464.488C1598.24 464.488 1583.03 460 1570.06 451.024C1557.1 442.048 1547 430.08 1539.77 415.12C1532.79 399.911 1529.3 383.205 1529.3 365.004C1529.3 346.304 1533.29 329.349 1541.27 314.14C1549.49 298.931 1561.21 286.963 1576.42 278.236C1591.63 269.26 1609.83 264.772 1631.03 264.772C1652.47 264.772 1670.54 269.26 1685.26 278.236C1699.97 287.212 1711.19 299.305 1718.92 314.514C1726.64 329.723 1730.51 346.553 1730.51 365.004V460H1679.27V428.21H1678.52C1674.78 434.942 1670.05 441.051 1664.31 446.536C1658.83 452.021 1652.09 456.385 1644.12 459.626C1636.14 462.867 1626.66 464.488 1615.69 464.488ZM1630.28 420.73C1640.25 420.73 1648.85 418.237 1656.08 413.25C1663.31 408.263 1668.8 401.531 1672.54 393.054C1676.53 384.327 1678.52 374.728 1678.52 364.256C1678.52 353.784 1676.53 344.434 1672.54 336.206C1668.8 327.729 1663.31 320.997 1656.08 316.01C1648.85 311.023 1640.25 308.53 1630.28 308.53C1620.05 308.53 1611.2 311.023 1603.72 316.01C1596.49 320.997 1590.88 327.729 1586.89 336.206C1583.15 344.434 1581.28 353.784 1581.28 364.256C1581.28 374.728 1583.15 384.327 1586.89 393.054C1590.88 401.531 1596.49 408.263 1603.72 413.25C1611.2 418.237 1620.05 420.73 1630.28 420.73ZM1870.65 460C1850.95 460 1833.37 455.761 1817.91 447.284C1802.45 438.807 1790.24 427.462 1781.26 413.25C1772.28 398.789 1767.8 382.582 1767.8 364.63C1767.8 346.678 1772.28 330.596 1781.26 316.384C1790.24 301.923 1802.45 290.453 1817.91 281.976C1833.37 273.499 1850.95 269.26 1870.65 269.26H1894.58V313.018H1870.65C1860.17 313.018 1851.07 315.262 1843.34 319.75C1835.86 324.238 1830 330.471 1825.77 338.45C1821.78 346.179 1819.78 354.906 1819.78 364.63C1819.78 374.354 1821.78 383.205 1825.77 391.184C1830 398.913 1835.86 405.022 1843.34 409.51C1851.07 413.998 1860.17 416.242 1870.65 416.242H1894.58V460H1870.65ZM2026.34 460C2004.65 460 1985.7 455.886 1969.49 447.658C1953.53 439.181 1941.07 427.711 1932.09 413.25C1923.37 398.789 1919 382.582 1919 364.63C1919 344.434 1923.12 326.856 1931.34 311.896C1939.57 296.936 1950.79 285.342 1965 277.114C1979.22 268.886 1995.3 264.772 2013.25 264.772C2034.69 264.772 2052.02 269.26 2065.24 278.236C2078.7 287.212 2088.55 299.305 2094.78 314.514C2101.02 329.474 2104.13 346.179 2104.13 364.63C2104.13 367.123 2104.01 370.115 2103.76 373.606C2103.51 376.847 2103.13 379.341 2102.64 381.086H1973.61C1975.6 388.815 1978.97 395.298 1983.7 400.534C1988.69 405.77 1994.8 409.759 2002.03 412.502C2009.51 414.995 2017.86 416.242 2027.09 416.242H2080.2V460H2026.34ZM1973.23 346.678H2052.89C2052.4 341.941 2051.52 337.577 2050.28 333.588C2049.03 329.349 2047.28 325.609 2045.04 322.368C2042.8 319.127 2040.18 316.384 2037.19 314.14C2034.19 311.896 2030.7 310.151 2026.71 308.904C2022.72 307.657 2018.36 307.034 2013.62 307.034C2007.39 307.034 2001.78 308.156 1996.79 310.4C1992.06 312.644 1988.07 315.636 1984.83 319.376C1981.58 323.116 1978.97 327.355 1976.97 332.092C1975.23 336.829 1973.98 341.691 1973.23 346.678Z" fill="url(#paint1_linear_643_5)"/>
<defs>
<linearGradient id="paint0_linear_643_5" x1="247" y1="32" x2="247" y2="544" gradientUnits="userSpaceOnUse">
<stop stop-color="#3CDAB4"/>
<stop offset="1" stop-color="#2AA8D0"/>
</linearGradient>
<linearGradient id="paint1_linear_643_5" x1="2168.5" y1="330" x2="617" y2="330" gradientUnits="userSpaceOnUse">
<stop stop-color="#3CDAB4"/>
<stop offset="1" stop-color="#2AA8D0"/>
</linearGradient>
</defs>
</svg>
